<svg 
 xmlns="http://www.w3.org/2000/svg"
 xmlns:xlink="http://www.w3.org/1999/xlink"
 width="498px" height="45px">
<defs>
<filter id="Filter_0">
    <feFlood flood-color="rgb(254, 220, 155)" flood-opacity="1" result="floodOut" />
    <feComposite operator="atop" in="floodOut" in2="SourceGraphic" result="compOut" />
    <feBlend mode="normal" in="compOut" in2="SourceGraphic" />
</filter>

</defs>
<g filter="url(#Filter_0)">
<path fill-rule="evenodd"  fill="rgb(255, 255, 255)"
 d="M495.891,14.913 C495.575,14.913 495.512,14.686 495.448,14.288 C495.385,13.776 495.259,12.582 494.689,11.616 C494.373,11.104 492.919,8.944 487.606,8.944 C483.812,8.944 480.966,10.991 480.966,14.401 C480.966,17.073 482.484,18.722 487.733,22.303 L489.187,23.326 C495.765,27.874 497.472,30.887 497.472,34.923 C497.472,36.969 496.524,40.607 492.666,42.995 C490.199,44.416 487.164,44.985 484.128,44.985 C481.472,44.985 479.005,44.700 476.602,43.734 C475.780,43.393 475.780,43.165 475.780,41.801 C475.780,39.186 475.970,37.253 476.033,36.458 C476.096,35.946 476.223,35.662 476.539,35.662 C476.855,35.662 476.982,35.832 476.982,36.230 C476.982,36.571 476.982,37.253 477.171,37.936 C477.993,41.631 481.725,43.052 485.393,43.052 C490.642,43.052 493.172,39.812 493.172,36.969 C493.172,33.729 491.527,31.739 486.911,28.386 L484.381,26.623 C478.310,22.246 477.045,19.233 477.045,15.879 C477.045,10.650 481.661,7.125 488.745,7.125 C490.958,7.125 492.476,7.296 493.867,7.580 C495.069,7.807 495.575,7.864 496.018,7.864 C496.460,7.864 496.587,7.978 496.587,8.205 C496.587,8.433 496.334,10.422 496.334,13.719 C496.334,14.572 496.207,14.913 495.891,14.913 ZM468.443,27.021 C468.000,27.021 467.874,27.021 467.368,27.078 C465.850,27.249 465.471,28.272 465.344,29.920 C465.218,31.569 465.218,32.990 465.218,35.036 L465.218,40.153 C465.218,42.426 465.154,42.483 464.459,42.824 C460.980,44.416 455.921,44.985 452.822,44.985 C448.711,44.985 440.743,44.700 434.292,39.868 C430.877,37.310 427.462,32.535 427.462,26.055 C427.462,18.324 431.825,12.810 437.011,10.024 C441.881,7.466 447.257,7.125 451.115,7.125 C455.162,7.125 457.882,7.580 460.158,7.921 C461.170,8.092 463.637,8.376 464.965,8.433 C465.471,8.433 465.471,8.660 465.471,8.887 C465.471,9.570 465.028,11.275 465.028,16.277 C465.028,17.073 464.965,17.301 464.522,17.301 C464.206,17.301 464.143,16.960 464.079,16.618 C464.079,16.107 463.826,14.345 462.878,13.094 C461.423,11.218 456.870,9.115 449.786,9.115 C446.371,9.115 442.387,9.228 438.150,12.128 C434.924,14.345 432.837,18.665 432.837,24.293 C432.837,31.057 436.948,36.060 438.592,37.481 C442.766,41.119 447.446,42.768 452.949,42.768 C454.719,42.768 457.502,42.483 458.957,41.801 C459.589,41.460 460.032,40.892 460.032,40.096 L460.032,31.910 C460.032,28.158 459.716,27.419 457.502,27.135 C457.123,27.078 456.490,27.021 455.984,27.021 C455.478,27.021 455.225,26.794 455.225,26.623 C455.225,26.339 455.478,26.225 456.174,26.225 C458.704,26.225 462.372,26.339 462.625,26.339 C462.878,26.339 466.609,26.225 468.317,26.225 C468.949,26.225 469.202,26.339 469.202,26.623 C469.202,26.794 469.012,27.021 468.443,27.021 ZM418.860,8.774 C417.406,9.058 416.963,9.626 416.963,13.037 L416.836,41.574 C416.836,44.416 416.710,44.700 416.267,44.700 C415.825,44.700 415.192,44.302 412.093,41.687 C411.840,41.574 403.050,33.729 397.547,28.897 C390.970,22.758 384.646,16.846 383.065,15.368 L383.887,37.595 C384.013,41.517 384.393,42.995 385.974,43.336 C386.986,43.563 388.061,43.563 388.567,43.563 C389.073,43.563 389.326,43.734 389.326,43.961 C389.326,44.246 389.010,44.359 388.314,44.359 C384.899,44.359 382.622,44.189 382.179,44.189 C381.737,44.189 379.397,44.359 376.677,44.359 C376.108,44.359 375.729,44.302 375.729,43.961 C375.729,43.734 375.982,43.563 376.614,43.563 C377.057,43.563 377.752,43.563 378.575,43.336 C379.966,42.938 380.282,41.403 380.282,37.253 C380.282,10.138 380.345,18.892 380.282,9.456 C380.282,7.694 380.472,7.125 380.978,7.125 C381.420,7.125 382.496,8.262 382.938,8.660 C383.507,9.228 392.298,17.301 401.152,25.430 C406.085,29.750 412.409,35.605 414.054,36.969 L413.358,13.321 C413.295,10.252 412.915,9.228 411.208,8.831 C410.133,8.660 409.184,8.603 408.741,8.603 C408.109,8.603 407.982,8.376 407.982,8.148 C407.982,7.864 408.488,7.807 409.121,7.807 C411.840,7.807 414.496,7.978 415.066,7.978 C415.698,7.978 417.659,7.807 420.125,7.807 C420.821,7.807 421.010,7.864 421.010,8.148 C421.010,8.376 420.821,8.546 420.441,8.603 C420.062,8.660 419.556,8.660 418.860,8.774 ZM368.266,44.359 C365.040,44.359 361.372,44.189 361.056,44.189 C360.866,44.189 357.135,44.359 355.364,44.359 C354.795,44.359 354.352,44.246 354.352,43.961 C354.352,43.734 354.605,43.563 355.174,43.563 C355.491,43.563 356.186,43.507 356.692,43.393 C357.767,43.165 357.957,42.029 358.147,40.664 C358.463,38.618 358.463,34.582 358.463,30.318 L358.463,21.791 C358.463,14.288 358.463,12.923 358.336,11.389 C358.210,9.854 357.831,9.001 356.502,8.774 C355.870,8.660 355.427,8.660 355.048,8.603 C354.605,8.546 354.352,8.433 354.352,8.205 C354.352,7.921 354.605,7.807 355.301,7.807 C357.261,7.807 360.866,7.978 361.056,7.978 C361.309,7.978 364.977,7.807 366.748,7.807 C367.380,7.807 367.696,7.921 367.696,8.205 C367.696,8.433 367.507,8.546 367.001,8.603 C366.621,8.660 366.305,8.660 365.862,8.717 C364.028,8.944 363.839,9.797 363.712,11.445 C363.586,12.980 363.649,14.288 363.649,21.791 L363.649,30.318 C363.649,34.695 363.586,38.675 363.902,40.721 C364.155,42.370 364.408,42.995 366.052,43.336 C366.874,43.507 368.202,43.563 368.455,43.563 C369.024,43.620 369.151,43.734 369.151,43.961 C369.151,44.189 368.898,44.359 368.266,44.359 ZM347.837,14.458 C347.520,14.458 347.394,14.231 347.394,13.776 C347.394,13.606 347.394,13.549 347.331,12.980 C347.078,10.706 346.256,10.138 339.868,10.081 C337.465,10.081 335.504,10.024 333.670,10.024 L333.670,30.318 C333.670,34.695 333.734,38.731 333.986,40.835 C334.176,42.199 334.303,42.995 335.884,43.336 C336.643,43.507 337.844,43.563 338.350,43.563 C338.856,43.563 339.109,43.734 339.109,43.904 C339.109,44.189 338.919,44.359 338.287,44.359 C335.062,44.359 331.330,44.189 331.077,44.189 C330.824,44.189 327.093,44.359 325.449,44.359 C324.753,44.359 324.500,44.246 324.500,43.961 C324.500,43.791 324.690,43.563 325.196,43.563 C325.702,43.563 326.081,43.563 326.587,43.507 C327.789,43.336 327.978,42.654 328.231,40.721 C328.484,38.675 328.484,34.582 328.484,30.318 L328.484,10.024 C326.397,10.024 323.045,10.024 320.516,10.081 C316.468,10.138 315.583,10.706 314.697,11.900 C314.128,12.696 313.875,13.378 313.749,13.662 C313.559,14.060 313.433,14.117 313.180,14.117 C312.927,14.117 312.863,13.890 312.863,13.606 C312.800,13.265 313.749,9.513 314.128,7.978 C314.318,7.296 314.508,7.068 314.697,7.068 C315.140,7.068 316.342,7.580 317.480,7.694 C319.694,7.921 321.464,7.978 321.528,7.978 L342.271,7.978 C344.042,7.978 345.939,7.864 346.825,7.694 C347.647,7.523 347.837,7.466 348.026,7.466 C348.279,7.466 348.406,7.750 348.406,7.978 C348.406,9.570 348.279,13.321 348.279,13.776 C348.279,14.288 348.026,14.458 347.837,14.458 ZM318.490,43.563 C318.933,43.563 319.249,43.677 319.249,43.961 C319.249,44.246 318.996,44.359 318.301,44.359 C317.668,44.359 312.925,44.359 308.688,44.246 C307.486,44.189 307.107,44.132 307.107,43.848 C307.107,43.677 307.297,43.507 307.549,43.450 C307.802,43.336 308.182,43.052 307.802,42.199 L302.806,30.773 C302.680,30.603 302.553,30.489 302.300,30.489 L290.790,30.489 C290.474,30.489 290.284,30.659 290.158,30.944 L287.375,38.049 C286.743,39.641 286.300,41.176 286.300,42.085 C286.300,43.109 286.996,43.563 288.387,43.563 C288.577,43.563 288.640,43.563 288.830,43.563 C289.399,43.563 289.589,43.734 289.589,43.961 C289.589,44.246 289.083,44.359 288.640,44.359 C287.249,44.359 284.339,44.189 283.644,44.189 C283.527,44.189 283.316,44.196 283.066,44.205 C282.851,44.316 282.441,44.359 281.746,44.359 L277.256,44.359 C273.714,44.359 272.133,44.075 270.489,43.279 C267.769,41.972 265.556,39.186 261.951,34.923 C259.295,31.796 256.323,27.988 255.058,26.510 C254.805,26.282 254.615,26.169 254.236,26.169 L246.457,26.055 C246.140,26.055 246.014,26.225 246.014,26.510 L246.014,27.874 C246.014,33.331 246.014,37.822 246.330,40.209 C246.520,41.858 246.899,43.109 248.797,43.336 C249.682,43.450 251.073,43.563 251.643,43.563 C252.022,43.563 252.148,43.734 252.148,43.904 C252.148,44.189 251.832,44.359 251.137,44.359 C247.658,44.359 243.674,44.189 243.358,44.189 C243.295,44.189 239.310,44.359 237.413,44.359 C236.717,44.359 236.401,44.246 236.401,43.904 C236.401,43.734 236.528,43.563 236.907,43.563 C237.476,43.563 238.235,43.450 238.804,43.336 C240.069,43.109 240.385,41.858 240.638,40.209 C240.955,37.822 240.955,33.331 240.955,27.874 L240.955,17.869 C240.955,9.001 240.955,7.409 240.828,5.590 C240.702,3.658 240.196,2.748 238.109,2.350 C237.603,2.236 236.528,2.180 235.958,2.180 C235.705,2.180 235.452,2.066 235.452,1.839 C235.452,1.497 235.769,1.384 236.464,1.384 C239.310,1.384 243.295,1.554 243.611,1.554 C244.306,1.554 249.113,1.384 251.073,1.384 C255.058,1.384 259.295,1.725 262.647,3.885 C264.228,4.908 267.011,7.694 267.011,11.616 C267.011,15.823 265.050,20.029 259.358,24.747 C264.544,30.716 268.845,35.775 272.513,39.300 C275.556,42.188 278.047,42.998 279.672,43.301 C281.614,42.717 282.536,41.055 283.454,39.016 L296.103,9.058 C296.798,7.409 296.988,7.125 297.431,7.125 C297.747,7.125 298.000,7.353 298.695,8.944 C299.581,10.820 308.182,30.659 311.534,37.765 C313.621,42.256 315.455,42.995 316.340,43.279 C317.162,43.563 318.048,43.563 318.490,43.563 ZM261.698,14.572 C261.698,7.466 257.524,3.203 250.757,3.203 C248.860,3.203 247.152,3.373 246.520,3.544 C246.204,3.658 246.014,3.885 246.014,4.226 L246.014,22.815 C246.014,23.099 246.140,23.326 246.457,23.497 C247.405,24.008 250.314,24.406 253.097,24.406 C254.615,24.406 256.386,24.236 257.840,23.326 C260.054,21.962 261.698,18.892 261.698,14.572 ZM301.731,28.158 L296.735,15.595 C296.419,14.799 296.356,14.799 296.039,15.595 L291.296,28.158 C291.170,28.386 291.296,28.499 291.423,28.499 L301.541,28.499 C301.794,28.499 301.794,28.329 301.731,28.158 ZM203.894,44.473 C199.720,44.473 197.949,44.359 195.735,44.359 C193.522,44.302 190.613,44.189 188.273,44.189 C186.818,44.189 185.617,44.359 184.099,44.359 C183.530,44.359 183.213,44.246 183.213,43.961 C183.213,43.734 183.466,43.563 183.783,43.563 C184.162,43.563 184.605,43.507 185.047,43.393 C186.186,43.165 186.945,42.426 187.071,38.902 C187.134,36.969 187.198,34.639 187.198,30.318 L187.198,21.791 C187.198,14.345 187.198,12.980 187.071,11.445 C186.945,9.854 186.502,9.058 184.668,8.717 C184.288,8.660 183.656,8.603 183.150,8.603 C182.707,8.603 182.328,8.433 182.328,8.262 C182.328,7.921 182.644,7.807 183.277,7.807 C184.541,7.807 186.249,7.921 189.791,7.978 C190.107,7.978 201.364,7.978 202.629,7.921 C203.894,7.864 204.589,7.807 205.095,7.637 C205.475,7.523 205.538,7.466 205.791,7.466 C205.917,7.466 206.044,7.580 206.044,7.864 C206.044,8.205 205.665,9.001 205.538,10.422 C205.475,11.389 205.412,12.298 205.348,13.378 C205.348,13.890 205.222,14.231 204.906,14.231 C204.589,14.231 204.463,14.004 204.463,13.606 C204.400,12.753 204.210,12.184 204.020,11.787 C203.641,10.650 203.072,10.252 199.909,10.081 C199.087,10.024 192.826,9.967 192.700,9.967 C192.510,9.967 192.384,10.081 192.384,10.422 L192.384,23.326 C192.384,23.667 192.447,23.895 192.763,23.895 C193.522,23.895 199.973,23.838 201.301,23.724 C202.755,23.667 203.704,23.497 204.210,22.871 C204.463,22.530 204.653,22.417 204.906,22.417 C205.032,22.417 205.159,22.474 205.159,22.758 C205.159,23.042 204.906,24.122 204.716,25.771 C204.526,27.362 204.526,28.499 204.463,29.238 C204.400,29.693 204.273,29.864 204.020,29.864 C203.704,29.864 203.641,29.522 203.641,29.125 C203.641,28.783 203.578,28.215 203.451,27.760 C203.198,27.021 202.819,26.225 200.415,26.055 C198.961,25.941 193.838,25.827 192.826,25.827 C192.447,25.827 192.384,25.998 192.384,26.225 L192.384,30.375 C192.384,32.137 192.320,37.140 192.384,38.106 C192.510,40.209 192.826,41.290 194.154,41.801 C195.103,42.199 196.621,42.313 198.771,42.313 C199.973,42.313 201.996,42.370 203.578,41.972 C205.475,41.460 205.917,40.323 206.423,38.220 C206.550,37.651 206.740,37.424 206.993,37.424 C207.372,37.424 207.372,37.936 207.372,38.277 C207.372,38.675 206.866,42.256 206.676,43.222 C206.423,44.359 205.981,44.473 203.894,44.473 ZM173.474,44.359 C170.248,44.359 166.580,44.189 166.264,44.189 C166.074,44.189 162.343,44.359 160.572,44.359 C160.003,44.359 159.560,44.246 159.560,43.961 C159.560,43.734 159.813,43.563 160.382,43.563 C160.698,43.563 161.394,43.507 161.900,43.393 C162.975,43.165 163.165,42.029 163.355,40.664 C163.671,38.618 163.671,34.582 163.671,30.318 L163.671,21.791 C163.671,14.288 163.671,12.923 163.544,11.389 C163.418,9.854 163.038,9.001 161.710,8.774 C161.078,8.660 160.635,8.660 160.256,8.603 C159.813,8.546 159.560,8.433 159.560,8.205 C159.560,7.921 159.813,7.807 160.509,7.807 C162.469,7.807 166.074,7.978 166.264,7.978 C166.517,7.978 170.185,7.807 171.956,7.807 C172.588,7.807 172.904,7.921 172.904,8.205 C172.904,8.433 172.715,8.546 172.209,8.603 C171.829,8.660 171.513,8.660 171.070,8.717 C169.236,8.944 169.047,9.797 168.920,11.445 C168.794,12.980 168.857,14.288 168.857,21.791 L168.857,30.318 C168.857,34.695 168.794,38.675 169.110,40.721 C169.363,42.370 169.616,42.995 171.260,43.336 C172.082,43.507 173.410,43.563 173.663,43.563 C174.232,43.620 174.359,43.734 174.359,43.961 C174.359,44.189 174.106,44.359 173.474,44.359 ZM156.208,8.603 C155.449,8.603 154.627,8.603 153.488,9.172 C152.793,9.626 152.034,10.309 150.516,13.606 C150.200,14.288 147.038,20.825 144.192,26.680 C140.840,33.729 138.247,39.073 137.172,41.005 C135.464,44.132 135.274,44.985 134.642,44.985 C133.883,44.985 133.567,44.302 132.492,41.801 L118.831,12.469 C117.567,9.797 117.124,9.115 114.847,8.774 C113.962,8.660 113.266,8.603 112.950,8.603 C112.444,8.603 112.191,8.433 112.191,8.205 C112.191,7.921 112.634,7.807 113.203,7.807 C116.112,7.807 119.780,7.978 120.412,7.978 C120.982,7.978 123.954,7.807 126.294,7.807 C127.053,7.807 127.306,7.921 127.306,8.148 C127.306,8.433 127.053,8.603 126.357,8.603 C125.472,8.603 124.903,8.717 124.397,8.887 C123.828,9.172 123.828,9.513 123.828,9.854 C123.828,10.252 124.207,11.332 124.839,12.696 L135.970,37.822 C139.132,31.512 146.405,15.027 147.544,11.616 C147.860,10.877 148.050,10.138 148.050,9.740 C148.050,9.399 147.986,9.001 147.480,8.831 C146.974,8.660 146.152,8.603 145.457,8.603 C145.014,8.603 144.634,8.489 144.634,8.262 C144.634,7.978 144.824,7.807 145.583,7.807 C147.860,7.807 150.895,7.978 151.591,7.978 C151.844,7.978 154.374,7.807 155.955,7.807 C156.587,7.807 156.904,7.921 156.904,8.148 C156.904,8.433 156.651,8.603 156.208,8.603 ZM88.664,44.985 C73.170,44.985 66.846,34.639 66.846,25.998 C66.846,18.438 73.360,7.125 88.980,7.125 C101.503,7.125 111.052,13.833 111.052,25.259 C111.052,36.117 102.135,44.985 88.664,44.985 ZM105.107,26.680 C105.107,15.254 97.265,8.887 88.601,8.887 C79.810,8.887 72.727,13.776 72.727,24.520 C72.727,35.662 79.621,43.052 90.245,43.052 C94.483,43.052 105.107,41.119 105.107,26.680 ZM63.051,44.359 C61.660,44.359 54.450,44.189 52.110,44.018 C50.655,43.904 50.339,43.734 50.339,43.450 C50.339,43.222 50.466,43.165 50.782,43.052 C51.225,42.881 51.161,42.029 51.035,41.005 L47.999,11.332 L32.315,41.233 C30.987,43.734 30.797,44.246 30.228,44.246 C29.785,44.246 29.469,43.677 28.267,41.631 C26.623,38.845 21.184,29.011 20.868,28.442 C20.299,27.419 13.026,13.378 12.330,11.843 L9.737,38.618 C9.674,39.527 9.611,40.323 9.611,41.290 C9.611,42.711 10.370,43.165 11.318,43.336 C12.394,43.563 13.216,43.563 13.595,43.563 C13.975,43.563 14.228,43.677 14.228,43.848 C14.228,44.246 13.911,44.359 13.279,44.359 C10.939,44.359 7.714,44.189 7.208,44.189 C6.638,44.189 3.603,44.359 1.895,44.359 C1.263,44.359 0.820,44.302 0.820,43.904 C0.820,43.677 1.136,43.563 1.453,43.563 C1.958,43.563 2.401,43.563 3.350,43.393 C5.437,43.052 5.563,41.005 5.880,38.675 L10.433,1.725 C10.496,1.100 10.749,0.588 11.129,0.588 C11.508,0.588 11.761,0.815 12.077,1.441 L31.430,37.197 L50.023,1.497 C50.276,0.986 50.529,0.588 50.972,0.588 C51.414,0.588 51.604,1.043 51.731,2.123 L55.968,37.026 C56.221,39.073 56.663,42.256 59.383,43.052 C61.217,43.563 62.672,43.563 63.304,43.563 C63.620,43.563 64.000,43.620 64.000,43.904 C64.000,44.246 63.810,44.359 63.051,44.359 Z"/>
</g>
</svg>
