<?xml version="1.0" standalone="no"?>
<!DOCTYPE svg PUBLIC "-//W3C//DTD SVG 20010904//EN"
 "http://www.w3.org/TR/2001/REC-SVG-20010904/DTD/svg10.dtd">
<svg version="1.0" xmlns="http://www.w3.org/2000/svg"
 width="512.000000pt" height="512.000000pt" viewBox="0 0 512.000000 512.000000"
 preserveAspectRatio="xMidYMid meet">
<metadata>
Created by potrace 1.11, written by Peter Selinger 2001-2013
</metadata>
<g transform="translate(0.000000,512.000000) scale(0.100000,-0.100000)"
fill="#000000" stroke="none">
<path d="M3883 4590 c-17 -4 -50 -7 -71 -6 -22 0 -38 -3 -35 -8 3 -5 -8 -7
-26 -4 -17 2 -31 2 -31 -2 0 -3 -10 -6 -22 -7 -13 -1 -54 -7 -91 -14 -38 -6
-71 -8 -74 -5 -3 3 -13 1 -22 -3 -16 -9 -61 -16 -156 -27 -77 -8 -97 -20 -145
-91 -25 -36 -52 -72 -61 -81 -9 -10 -31 -39 -49 -67 -19 -27 -36 -52 -40 -55
-3 -3 -23 -30 -45 -60 -22 -30 -45 -59 -52 -63 -7 -4 -13 -12 -13 -17 0 -12
-86 -127 -113 -152 -10 -9 -17 -19 -15 -21 2 -3 -9 -19 -24 -36 -16 -17 -28
-34 -28 -38 0 -16 -33 -41 -48 -36 -14 4 -14 3 -3 -5 16 -11 5 -36 -11 -26 -7
4 -8 2 -4 -5 6 -10 -36 -72 -124 -181 -11 -14 -20 -28 -20 -31 0 -6 127 8 140
16 4 3 11 -1 13 -7 4 -10 7 -10 15 0 6 9 33 14 75 15 35 1 63 5 60 10 -4 6 26
10 80 10 9 0 17 4 17 9 0 5 5 6 10 3 6 -4 7 -12 3 -18 -3 -7 3 -4 15 7 13 12
31 17 46 14 14 -3 23 -1 20 3 -2 5 11 7 31 5 20 -1 38 1 40 5 8 12 55 7 49 -5
-3 -6 1 -3 10 8 9 12 23 17 36 13 11 -3 23 -1 26 5 3 5 12 7 20 4 7 -3 16 0
20 6 4 7 3 8 -4 4 -7 -4 -12 -4 -12 -1 0 12 81 115 90 115 6 0 9 4 7 8 -3 10
101 152 112 152 4 0 8 6 8 13 0 15 83 127 94 127 5 0 9 5 9 10 0 20 82 120 93
113 6 -3 7 -1 3 6 -9 13 12 44 24 36 4 -3 7 3 6 13 0 9 4 16 11 15 7 -2 10 3
7 10 -2 7 9 26 25 43 17 16 31 35 31 42 0 6 4 12 8 12 5 0 15 11 22 25 7 13
17 22 22 19 5 -3 7 -1 6 4 -3 11 6 25 74 117 46 63 46 64 20 63 -15 -1 -41 -5
-59 -8z"/>
<path d="M4507 4397 c-20 -29 -44 -61 -54 -72 -10 -11 -36 -44 -57 -74 -21
-30 -43 -59 -47 -65 -41 -49 -49 -60 -49 -68 0 -5 -5 -6 -12 -2 -6 4 -8 3 -5
-3 4 -6 -4 -22 -18 -37 -13 -14 -21 -26 -18 -26 3 0 -2 -9 -12 -20 -15 -16
-21 -18 -34 -7 -14 11 -14 10 -2 -6 9 -11 11 -21 5 -25 -5 -4 -17 -20 -27 -35
-10 -15 -23 -25 -29 -21 -6 4 -8 3 -5 -3 7 -12 -29 -73 -43 -73 -6 0 -8 -4 -5
-10 3 -5 1 -10 -4 -10 -6 0 -11 -5 -11 -10 0 -6 -11 -23 -25 -38 -34 -37 -32
-41 17 -31 23 6 47 8 54 5 8 -3 16 -1 19 4 4 6 11 10 16 10 6 0 7 -6 3 -12 -6
-10 -4 -10 7 -2 17 13 61 25 54 15 -2 -4 2 -8 10 -8 8 0 12 4 9 9 -5 7 32 12
94 11 12 0 22 3 22 6 0 12 40 10 40 -2 0 -7 5 -4 11 7 9 15 13 16 20 5 5 -9 9
-10 9 -2 0 6 11 10 25 8 14 -1 25 1 25 5 0 4 13 13 29 20 25 10 73 54 78 70 1
3 7 18 13 35 6 16 9 37 7 47 -3 10 -1 18 5 18 5 0 6 5 3 10 -8 12 -15 51 -19
100 -2 19 -6 42 -9 50 -3 8 -9 40 -12 70 -4 30 -9 69 -11 85 -2 17 -6 48 -8
69 -3 22 -9 43 -14 48 -5 5 -25 -15 -45 -45z"/>
<path d="M2395 4374 c-44 -7 -105 -16 -135 -20 -30 -3 -64 -8 -75 -10 -11 -2
-40 -7 -65 -10 -25 -3 -54 -8 -65 -10 -18 -4 -84 -12 -155 -20 -51 -5 -71 -17
-106 -67 -20 -28 -41 -55 -46 -61 -5 -6 -29 -39 -54 -73 -25 -35 -50 -60 -55
-57 -5 3 -6 -1 -3 -9 3 -9 -4 -22 -18 -31 -12 -9 -19 -16 -15 -16 8 0 -152
-214 -164 -218 -5 -2 -9 -8 -9 -13 0 -8 -155 -222 -185 -255 -24 -27 -115
-158 -115 -166 0 -4 10 -5 22 -2 102 19 142 24 158 19 12 -4 20 -2 20 6 0 8 5
8 17 -2 9 -8 14 -9 10 -3 -6 11 42 22 129 29 17 2 41 6 54 10 17 5 21 4 15 -5
-6 -9 -4 -11 6 -4 8 4 19 9 24 11 22 5 63 12 130 23 64 10 72 14 93 46 13 20
27 32 34 28 7 -5 8 -3 3 5 -4 8 1 21 14 32 12 11 21 24 21 29 0 6 7 10 16 10
8 0 12 4 9 10 -8 14 45 81 58 73 6 -4 7 -1 3 6 -10 15 23 53 37 44 6 -3 7 -1
3 6 -9 13 32 74 44 66 5 -3 12 0 16 6 4 8 3 9 -4 5 -18 -11 -14 2 10 34 11 16
24 27 28 25 4 -2 7 1 7 8 0 7 23 43 51 80 29 37 52 64 52 60 0 -4 8 8 18 27
10 19 23 34 29 33 8 -2 10 4 6 14 -4 10 -2 14 4 10 6 -4 14 4 17 18 4 16 11
23 18 19 7 -4 8 -3 4 4 -10 16 33 62 53 55 14 -4 14 -3 1 6 -13 10 -11 14 10
32 14 11 18 17 10 13 -13 -7 -13 -5 -1 9 7 9 18 14 24 10 6 -3 7 -1 3 5 -4 6
2 20 14 32 11 11 17 20 14 20 -3 0 8 18 25 39 31 39 37 52 24 50 -5 -1 -44 -7
-88 -15z"/>
<path d="M3773 4295 c0 -8 4 -12 9 -9 5 3 6 10 3 15 -9 13 -12 11 -12 -6z"/>
<path d="M1019 4176 c-2 -2 -26 -6 -54 -9 -27 -3 -61 -9 -75 -12 -14 -3 -48
-7 -77 -9 -28 -2 -55 -6 -60 -9 -4 -2 -20 -4 -35 -3 -16 1 -28 -1 -28 -4 0 -6
-20 -9 -75 -13 -16 -1 -32 -4 -35 -7 -16 -16 -68 -38 -75 -32 -5 4 -5 2 -2 -5
4 -6 2 -17 -5 -25 -39 -40 -51 -115 -33 -203 5 -22 9 -54 10 -70 0 -17 5 -36
9 -44 7 -10 5 -12 -5 -6 -12 8 -12 6 0 -8 7 -9 11 -26 8 -37 -3 -11 -1 -22 3
-25 5 -3 9 -13 8 -23 0 -34 20 -163 27 -170 2 -2 11 9 21 25 10 15 25 36 33
45 33 35 46 53 46 59 0 4 12 21 28 38 15 17 27 34 26 37 0 3 10 18 23 32 14
15 40 48 58 75 18 26 37 47 42 47 5 0 7 3 5 8 -7 10 19 32 29 24 4 -4 4 -1 0
5 -7 12 78 133 112 161 9 6 12 12 8 12 -6 0 16 31 97 138 7 8 4 12 -10 12 -11
0 -22 -2 -24 -4z"/>
<path d="M3513 3965 c0 -8 4 -15 9 -15 4 0 8 4 8 9 0 6 -4 12 -8 15 -5 3 -9
-1 -9 -9z"/>
<path d="M836 3813 c-6 -14 -5 -15 5 -6 7 7 10 15 7 18 -3 3 -9 -2 -12 -12z"/>
<path d="M3413 3815 c0 -8 4 -12 9 -9 5 3 6 10 3 15 -9 13 -12 11 -12 -6z"/>
<path d="M4150 3736 c0 -2 8 -10 18 -17 15 -13 16 -12 3 4 -13 16 -21 21 -21
13z"/>
<path d="M2686 3522 c-3 -5 1 -9 9 -9 8 0 12 4 9 9 -3 4 -7 8 -9 8 -2 0 -6 -4
-9 -8z"/>
<path d="M1875 3243 c8 -16 41 -14 -337 -15 -175 0 -318 -3 -318 -5 0 -3 23
-27 50 -54 28 -27 48 -54 45 -60 -4 -5 -3 -8 2 -7 14 5 63 -39 60 -53 -2 -8
-2 -11 0 -7 7 12 33 -3 33 -19 0 -8 5 -11 10 -8 6 3 10 -1 10 -9 0 -9 7 -16
16 -16 11 0 14 -6 10 -22 -3 -13 -3 -18 0 -11 7 15 34 5 34 -12 0 -8 9 -17 20
-20 11 -3 20 -13 20 -21 0 -8 4 -13 9 -10 9 6 26 -22 23 -36 -1 -4 5 -5 13 -2
10 4 15 0 15 -11 0 -9 4 -14 9 -11 9 6 26 -22 22 -37 -1 -5 3 -6 8 -3 12 8 52
-34 45 -45 -3 -5 2 -6 10 -3 9 3 17 -2 21 -15 3 -12 13 -21 22 -21 9 0 13 -6
9 -15 -3 -8 -2 -14 2 -14 21 3 32 -3 32 -18 0 -9 3 -14 6 -10 8 7 60 -54 56
-66 -1 -5 2 -6 7 -2 11 6 51 -29 51 -45 0 -5 5 -10 11 -10 5 0 7 -5 3 -12 -4
-6 -3 -8 3 -5 13 8 55 -31 47 -44 -3 -5 0 -8 8 -7 7 2 12 -2 11 -9 -2 -8 4
-10 14 -6 9 4 14 2 10 -3 -3 -6 5 -18 19 -28 30 -23 32 -41 3 -25 -12 6 -19 7
-16 2 3 -5 -21 -9 -56 -8 -44 1 -61 5 -59 14 1 7 -2 10 -8 6 -6 -3 -8 -10 -6
-14 7 -11 -416 -8 -433 3 -10 6 -12 5 -7 -3 6 -9 -14 -11 -77 -7 -79 3 -87 6
-121 36 -19 18 -33 37 -29 43 3 6 1 7 -4 4 -12 -8 -46 27 -36 36 3 4 0 7 -8 7
-16 0 -49 34 -49 51 0 5 -4 8 -9 5 -11 -7 -62 50 -53 59 4 4 2 5 -3 3 -13 -4
-121 101 -118 113 2 5 -3 9 -10 9 -13 0 -41 28 -44 44 -1 5 -12 14 -25 21 -13
6 -22 17 -21 23 2 7 -3 11 -10 9 -6 -1 -11 4 -10 11 2 6 -3 12 -10 12 -14 1
-86 70 -72 70 6 0 -1 6 -15 13 -14 8 -24 19 -23 25 2 7 -2 12 -8 12 -5 0 -38
28 -72 62 -55 54 -62 59 -65 39 -2 -12 -6 -19 -10 -17 -4 2 -6 -525 -5 -1172
2 -871 6 -1188 14 -1221 7 -24 23 -55 35 -69 13 -13 21 -29 17 -35 -3 -5 -1
-7 5 -3 6 3 13 2 17 -4 3 -5 23 -17 43 -27 20 -9 39 -19 42 -22 3 -4 21 -6 40
-6 24 0 34 -4 32 -13 -1 -8 2 -11 8 -7 6 3 8 10 6 14 -3 4 270 7 607 7 539 0
613 -2 625 -16 11 -13 11 -13 6 1 -4 14 4 16 58 15 35 -1 69 -5 77 -10 9 -6
12 -5 8 1 -11 17 156 11 171 -7 11 -13 11 -13 6 1 -4 14 4 16 58 15 35 -1 69
-5 77 -10 9 -6 12 -5 8 0 -4 6 262 10 716 10 641 0 723 -2 735 -15 11 -14 11
-14 6 0 -4 14 4 16 58 15 35 -1 69 -5 77 -10 9 -6 12 -5 8 1 -11 17 156 11
171 -7 11 -13 11 -13 7 0 -5 13 11 16 102 17 129 2 144 4 161 21 17 15 36 16
26 0 -4 -7 -3 -8 5 -4 6 4 9 11 7 15 -7 10 46 57 59 53 5 -2 7 -1 3 3 -4 4 3
25 15 48 18 35 21 59 22 158 0 67 4 115 9 111 5 -3 6 1 1 9 -11 18 -13 189 -2
196 4 2 4 10 -1 16 -11 13 -10 46 1 64 4 6 4 14 -1 17 -9 5 -9 47 1 63 4 7 3
14 -2 17 -10 7 -9 45 2 63 3 5 3 13 0 17 -10 10 -10 377 0 383 4 3 4 10 -1 16
-11 13 -10 46 1 64 4 6 4 14 -1 17 -9 5 -9 47 1 63 4 7 3 14 -2 17 -10 7 -9
45 2 63 4 6 4 14 0 16 -5 3 -8 81 -7 174 0 92 -1 173 -3 178 -2 6 -76 10 -196
9 -105 0 -200 4 -211 9 -13 6 -16 6 -12 -2 4 -6 1 -11 -8 -11 -19 0 -97 70
-90 82 3 5 0 7 -8 6 -7 -2 -12 3 -10 10 1 6 -4 11 -10 10 -7 -2 -12 3 -10 10
1 8 -1 11 -6 8 -10 -6 -158 143 -154 155 1 5 -4 8 -10 7 -7 -2 -12 3 -10 10 1
6 -4 11 -10 10 -7 -2 -12 3 -10 10 1 8 -1 11 -6 8 -11 -7 -205 191 -198 203 4
5 1 13 -5 17 -8 4 -9 3 -5 -4 13 -21 -7 -13 -36 15 -28 27 -39 51 -16 37 7 -4
8 -3 4 5 -4 6 -12 9 -17 5 -11 -7 -205 184 -201 198 1 5 -1 7 -6 4 -5 -3 -18
5 -29 18 l-20 23 -324 0 c-178 1 -327 -1 -332 -4 -4 -2 19 -31 52 -63 32 -33
56 -61 53 -64 -3 -4 0 -6 6 -6 15 0 102 -91 96 -101 -3 -5 2 -6 11 -3 11 5 18
0 22 -15 3 -11 9 -21 13 -21 5 0 27 -18 49 -40 22 -22 38 -40 36 -40 -3 0 4
-9 15 -20 11 -11 25 -20 31 -20 5 0 7 -4 4 -10 -3 -5 -2 -10 2 -10 5 0 18 -6
28 -14 17 -12 18 -16 5 -32 -13 -17 -13 -18 1 -7 16 13 26 7 71 -43 9 -11 34
-36 56 -56 27 -25 36 -40 29 -47 -7 -7 -3 -8 12 -4 12 3 21 1 21 -5 0 -14 56
-72 70 -72 5 0 10 -7 10 -16 0 -9 -5 -12 -12 -8 -7 4 -8 3 -4 -5 5 -8 12 -9
19 -2 8 6 16 4 25 -5 7 -8 11 -14 8 -14 -2 0 18 -22 46 -48 l50 -48 -389 1
-389 0 -423 423 c-233 233 -428 421 -434 419 -7 -2 -18 3 -25 12 -8 9 -11 10
-7 4z"/>
<path d="M4251 3234 c-1 -6 -19 -10 -46 -8 -25 2 -45 0 -45 -2 0 -3 66 -73
148 -156 81 -82 146 -154 144 -160 -1 -5 1 -7 6 -5 4 3 29 -16 55 -43 26 -26
47 -46 47 -44 0 2 21 -19 46 -46 26 -27 50 -48 54 -45 4 2 6 32 5 65 -2 54 -1
59 14 48 14 -12 15 -11 1 6 -16 20 -22 183 -8 203 5 6 5 14 0 17 -5 3 -8 41
-7 84 l2 79 -204 -1 c-127 -1 -205 3 -207 9 -3 6 -5 6 -5 -1z"/>
<path d="M1519 2853 c-13 -17 -13 -17 6 -3 11 8 22 16 24 17 2 2 0 3 -6 3 -6
0 -17 -8 -24 -17z"/>
<path d="M1731 2647 c-13 -21 -12 -21 5 -5 10 10 16 20 13 22 -3 3 -11 -5 -18
-17z"/>
<path d="M3410 2440 c0 -5 5 -10 11 -10 5 0 7 5 4 10 -3 6 -8 10 -11 10 -2 0
-4 -4 -4 -10z"/>
<path d="M1955 2420 c-3 -5 -1 -10 4 -10 6 0 11 5 11 10 0 6 -2 10 -4 10 -3 0
-8 -4 -11 -10z"/>
<path d="M553 585 c0 -8 4 -12 9 -9 5 3 6 10 3 15 -9 13 -12 11 -12 -6z"/>
<path d="M625 520 c-3 -6 1 -7 9 -4 18 7 21 14 7 14 -6 0 -13 -4 -16 -10z"/>
<path d="M975 500 c3 -5 8 -10 11 -10 2 0 4 5 4 10 0 6 -5 10 -11 10 -5 0 -7
-4 -4 -10z"/>
<path d="M1055 500 c3 -5 8 -10 11 -10 2 0 4 5 4 10 0 6 -5 10 -11 10 -5 0 -7
-4 -4 -10z"/>
<path d="M1455 500 c3 -5 8 -10 11 -10 2 0 4 5 4 10 0 6 -5 10 -11 10 -5 0 -7
-4 -4 -10z"/>
<path d="M1535 500 c3 -5 8 -10 11 -10 2 0 4 5 4 10 0 6 -5 10 -11 10 -5 0 -7
-4 -4 -10z"/>
<path d="M2895 500 c3 -5 8 -10 11 -10 2 0 4 5 4 10 0 6 -5 10 -11 10 -5 0 -7
-4 -4 -10z"/>
<path d="M2975 500 c3 -5 8 -10 11 -10 2 0 4 5 4 10 0 6 -5 10 -11 10 -5 0 -7
-4 -4 -10z"/>
<path d="M3375 500 c3 -5 8 -10 11 -10 2 0 4 5 4 10 0 6 -5 10 -11 10 -5 0 -7
-4 -4 -10z"/>
<path d="M3455 500 c3 -5 8 -10 11 -10 2 0 4 5 4 10 0 6 -5 10 -11 10 -5 0 -7
-4 -4 -10z"/>
</g>
</svg>
